<svg xmlns="http://www.w3.org/2000/svg" width="880" height="400" viewBox="0 0 880 400" role="img" aria-label="Bytes one decode step reads against the batch for Mixtral-8x7B and for a dense model of its active size, on an H200 at 1K context." style="color: #E4EAE7">
  <title>Bytes one decode step reads against the batch for Mixtral-8x7B and for a dense model of its active size, on an H200 at 1K context.</title>
  <rect x="0" y="0" width="880" height="400" rx="8" fill="#161E1C"/>
  <defs>
    <marker id="arr" viewBox="0 0 10 10" refX="9" refY="5" markerWidth="8" markerHeight="8" orient="auto-start-reverse"><path d="M0 0 L10 5 L0 10 z" fill="#97A59F"/></marker>
    <marker id="arrA" viewBox="0 0 10 10" refX="9" refY="5" markerWidth="8" markerHeight="8" orient="auto-start-reverse"><path d="M0 0 L10 5 L0 10 z" fill="#4CC5B7"/></marker>
  </defs>
  <g font-family="Bricolage Grotesque, system-ui, sans-serif" font-size="12.5" fill="currentColor">
    <line x1="84" y1="338.0" x2="846" y2="338.0" stroke="#97A59F" stroke-width="1" stroke-opacity="0.25"/>
    <text x="74" y="342.0" font-size="11" fill="#97A59F" text-anchor="end">0</text>
    <line x1="84" y1="276.75" x2="846" y2="276.75" stroke="#97A59F" stroke-width="1" stroke-opacity="0.25"/>
    <text x="74" y="280.75" font-size="11" fill="#97A59F" text-anchor="end">25</text>
    <line x1="84" y1="215.5" x2="846" y2="215.5" stroke="#97A59F" stroke-width="1" stroke-opacity="0.25"/>
    <text x="74" y="219.5" font-size="11" fill="#97A59F" text-anchor="end">50</text>
    <line x1="84" y1="154.25" x2="846" y2="154.25" stroke="#97A59F" stroke-width="1" stroke-opacity="0.25"/>
    <text x="74" y="158.25" font-size="11" fill="#97A59F" text-anchor="end">75</text>
    <line x1="84" y1="93.0" x2="846" y2="93.0" stroke="#97A59F" stroke-width="1" stroke-opacity="0.25"/>
    <text x="74" y="97.0" font-size="11" fill="#97A59F" text-anchor="end">100</text>
    <line x1="84.0" y1="338" x2="84.0" y2="343" stroke="#97A59F" stroke-width="1"/>
    <text x="84.0" y="357" font-size="11" fill="#97A59F" text-anchor="middle">1</text>
    <line x1="204.0" y1="338" x2="204.0" y2="343" stroke="#97A59F" stroke-width="1"/>
    <text x="204.0" y="357" font-size="11" fill="#97A59F" text-anchor="middle">2</text>
    <line x1="324.0" y1="338" x2="324.0" y2="343" stroke="#97A59F" stroke-width="1"/>
    <text x="324.0" y="357" font-size="11" fill="#97A59F" text-anchor="middle">4</text>
    <line x1="444.00000000000006" y1="338" x2="444.00000000000006" y2="343" stroke="#97A59F" stroke-width="1"/>
    <text x="444.00000000000006" y="357" font-size="11" fill="#97A59F" text-anchor="middle">8</text>
    <line x1="564.0" y1="338" x2="564.0" y2="343" stroke="#97A59F" stroke-width="1"/>
    <text x="564.0" y="357" font-size="11" fill="#97A59F" text-anchor="middle">16</text>
    <line x1="684.0" y1="338" x2="684.0" y2="343" stroke="#97A59F" stroke-width="1"/>
    <text x="684.0" y="357" font-size="11" fill="#97A59F" text-anchor="middle">32</text>
    <line x1="804.0000000000001" y1="338" x2="804.0000000000001" y2="343" stroke="#97A59F" stroke-width="1"/>
    <text x="804.0000000000001" y="357" font-size="11" fill="#97A59F" text-anchor="middle">64</text>
    <line x1="84" y1="44" x2="84" y2="338" stroke="#97A59F" stroke-width="1.2"/>
    <line x1="84" y1="338" x2="846" y2="338" stroke="#97A59F" stroke-width="1.2"/>
    <text x="465.0" y="380" font-size="11.5" fill="#97A59F" text-anchor="middle">batch (sequences in one decode step)</text>
    <text x="22" y="191.0" font-size="11.5" fill="#97A59F" text-anchor="middle" transform="rotate(-90 22 191.0)">GB one decode step reads (weights + KV)</text>
    <line x1="84" y1="109.16999999999996" x2="846" y2="109.16999999999996" stroke="#E39A62" stroke-width="1.2" stroke-dasharray="6 4"/>
    <text x="100" y="103.16999999999996" font-size="11" fill="#E39A62">all weights in HBM: 93.4 GB</text>
    <polyline points="84.0,275.2 204.0,274.9 274.2,274.5 324.0,274.2 362.6,273.9 394.2,273.6 420.9,273.2 444.0,272.9 464.4,272.6 482.6,272.2 499.1,271.9 514.2,271.6 528.1,271.3 540.9,270.9 552.8,270.6 564.0,270.3 574.5,269.9 584.4,269.6 593.8,269.3 602.6,269.0 611.1,268.6 619.1,268.3 626.8,268.0 634.2,267.6 641.3,267.3 648.1,267.0 654.6,266.6 660.9,266.3 667.0,266.0 672.8,265.7 678.5,265.3 684.0,265.0 689.3,264.7 694.5,264.3 699.5,264.0 704.4,263.7 709.1,263.4 713.8,263.0 718.2,262.7 722.6,262.4 726.9,262.0 731.1,261.7 735.2,261.4 739.1,261.1 743.0,260.7 746.8,260.4 750.6,260.1 754.2,259.7 757.8,259.4 761.3,259.1 764.7,258.7 768.1,258.4 771.4,258.1 774.6,257.8 777.8,257.4 780.9,257.1 783.9,256.8 787.0,256.4 789.9,256.1 792.8,255.8 795.7,255.5 798.5,255.1 801.3,254.8 804.0,254.5" fill="none" stroke="#97A59F" stroke-width="1.8" stroke-linejoin="round"/>
    <polyline points="84.0,275.2 204.0,233.4 274.2,202.0 324.0,178.4 362.6,160.6 394.2,147.2 420.9,137.0 444.0,129.3 464.4,123.4 482.6,119.0 499.1,115.5 514.2,112.8 528.1,110.8 540.9,109.1 552.8,107.8 564.0,106.7 574.5,105.9 584.4,105.1 593.8,104.5 602.6,103.9 611.1,103.4 619.1,103.0 626.8,102.5 634.2,102.1 641.3,101.7 648.1,101.4 654.6,101.0 660.9,100.7 667.0,100.3 672.8,100.0 678.5,99.6 684.0,99.3 689.3,99.0 694.5,98.6 699.5,98.3 704.4,98.0 709.1,97.6 713.8,97.3 718.2,97.0 722.6,96.6 726.9,96.3 731.1,96.0 735.2,95.6 739.1,95.3 743.0,95.0 746.8,94.7 750.6,94.3 754.2,94.0 757.8,93.7 761.3,93.3 764.7,93.0 768.1,92.7 771.4,92.4 774.6,92.0 777.8,91.7 780.9,91.4 783.9,91.0 787.0,90.7 789.9,90.4 792.8,90.0 795.7,89.7 798.5,89.4 801.3,89.1 804.0,88.7" fill="none" stroke="#4CC5B7" stroke-width="2.2" stroke-linejoin="round"/>
    <line x1="324.0" y1="270.2203631616" x2="324.0" y2="182.401383424" stroke="#97A59F" stroke-width="1" stroke-dasharray="3 3"/>
    <text x="331.0" y="230.3108732928" font-size="11" fill="#97A59F">2.5× slower</text>
    <line x1="564.0" y1="266.2702675968" x2="564.0" y2="110.74783283545" stroke="#97A59F" stroke-width="1" stroke-dasharray="3 3"/>
    <text x="571.0" y="192.509050216125" font-size="11" fill="#97A59F">3.4× slower</text>
    <circle cx="84.0" cy="275.2" r="3.2" fill="#4CC5B7"/>
    <circle cx="324.0" cy="178.4" r="3.2" fill="#4CC5B7"/>
    <circle cx="564.0" cy="106.7" r="3.2" fill="#4CC5B7"/>
    <circle cx="804.0" cy="88.7" r="3.2" fill="#4CC5B7"/>
    <circle cx="324.0" cy="274.2" r="3.2" fill="#97A59F"/>
    <circle cx="564.0" cy="270.3" r="3.2" fill="#97A59F"/>
    <text x="94.0" y="297.2027490304" font-size="11" fill="#7ADACF">batch 1: 2.00 of 8 experts per layer, 5.34 ms</text>
    <text x="316.0" y="170.401383424" font-size="11" fill="#7ADACF" text-anchor="end">65.1 GB</text>
    <text x="556.0" y="98.74783283545" font-size="11" fill="#7ADACF" text-anchor="end">94.4 GB</text>
    <text x="796.0000000000001" y="78.73269901060092" font-size="11" fill="#7ADACF" text-anchor="end">batch 64: 8.00 of 8, 101.7 GB, 21.20 ms</text>
    <text x="316.0" y="266.2203631616" font-size="11" fill="#97A59F" text-anchor="end">26.0 GB</text>
    <text x="556.0" y="262.2702675968" font-size="11" fill="#97A59F" text-anchor="end">27.6 GB</text>
    <line x1="100" y1="58" x2="126" y2="58" stroke="#4CC5B7" stroke-width="2.2"/>
    <text x="134" y="62" font-size="11.5">Mixtral-8x7B: 46.70B total, 12.88B active</text>
    <line x1="100" y1="78" x2="126" y2="78" stroke="#97A59F" stroke-width="1.8"/>
    <text x="134" y="82" font-size="11.5" fill="#97A59F">dense model of the active size (12.9B)</text>
  </g>
</svg>
